<svg id="eA3dBG7Lj5N1" xmlns="http://www.w3.org/2000/svg" xmlns:xlink="http://www.w3.org/1999/xlink" viewBox="0 0 300 300" shape-rendering="geometricPrecision" text-rendering="geometricPrecision"><defs><filter id="eA3dBG7Lj5N5-filter" x="-150%" width="400%" y="-150%" height="400%"><feGaussianBlur id="eA3dBG7Lj5N5-filter-drop-shadow-0-blur" in="SourceAlpha" stdDeviation="0,0"/><feOffset id="eA3dBG7Lj5N5-filter-drop-shadow-0-offset" dx="0" dy="0" result="tmp"/><feFlood id="eA3dBG7Lj5N5-filter-drop-shadow-0-flood" flood-color="#000"/><feComposite id="eA3dBG7Lj5N5-filter-drop-shadow-0-composite" operator="in" in2="tmp"/><feMerge id="eA3dBG7Lj5N5-filter-drop-shadow-0-merge"><feMergeNode id="eA3dBG7Lj5N5-filter-drop-shadow-0-merge-node-1"/><feMergeNode id="eA3dBG7Lj5N5-filter-drop-shadow-0-merge-node-2" in="SourceGraphic"/></feMerge></filter></defs><text dx="0" dy="0" font-family="&quot;eA3dBG7Lj5N1:::Roboto&quot;" font-size="24" font-weight="700" transform="translate(54.039064 158.670281)" opacity="0.57" stroke-width="0"><tspan y="0" font-weight="700" stroke-width="0"><![CDATA[

]]></tspan></text><g id="eA3dBG7Lj5N4" transform="translate(.000001 0)"><path d="M150.3828,287.88488c-76.35053,0-138.24487-61.89411-138.24487-138.24436s61.89433-138.24436,138.24487-138.24436s138.24487,61.89411,138.24487,138.24436-61.89433,138.24436-138.24487,138.24436Zm54.19766-173.48429c16.56854,0,30-13.43146,30-30s-13.43146-30-30-30-30,13.43146-30,30s13.43146,30,30,30ZM113.52691,248.1458c36.85381,0,66.72972-29.85941,66.72972-66.69287s-29.87591-66.69287-66.72972-66.69287-66.72972,29.85941-66.72972,66.69287s29.87591,66.69287,66.72972,66.69287Z" filter="url(#eA3dBG7Lj5N5-filter)" fill="#ccedf8" stroke="#fff" stroke-width="3"/></g>
</svg>
