<?xml version="1.0" standalone="no"?>
<!DOCTYPE svg PUBLIC "-//W3C//DTD SVG 1.1//EN" 
  "http://www.w3.org/Graphics/SVG/1.1/DTD/svg11.dtd">
<svg width="31.638305639943187m" height="32.22323605986453m" viewBox="0 0 31.638305639943187 32.22323605986453"
     xmlns="http://www.w3.org/2000/svg" version="1.1">
<desc>Outline to SVG export</desc>
	<path fill-rule="evenodd" fill="#000000" stroke="#555555" stroke-width="0" opacity="1" d="M 9.638305676122053,11.00000000000015 L 9.638305688117377,11.000000244300836 L 9.849609350944732,13.145995849445193 L 9.8496093868283,13.14599609139754 L 9.849609446174002,13.145996328345975 L 10.475585866237664,15.209518197701968 L 10.475585948641928,15.209518428001978 L 10.475586053088819,15.209518648832846 L 11.492187384307398,17.111274502812158 L 11.49218751002106,17.111274712542347 L 11.492187655680379,17.11127490894509 L 12.860107266144952,18.778175164236576 L 12.860107430402888,18.77817534547643 L 12.860107611511069,18.778175509631602 L 14.526977349300408,20.14616378469327 L 14.526977545762733,20.146163930402242 L 14.526977755302665,20.14616405599806 L 16.428832791340476,21.162673834494626 L 16.428833012426306,21.162673939056422 L 16.4288332426952,21.16267402144763 L 18.492309335397277,21.78863518264407 L 18.49230957266533,21.788635242078026 L 18.492309814573204,21.788635277963042 L 20.638305419758396,21.999999975937854 L 20.638305664062518,21.999999987940036 L 20.63830590834287,21.999999975939602 L 22.7843015135085,21.78863527796839 L 22.78430175545973,21.788635242078012 L 22.78430199268565,21.788635182655714 L 24.8477780854298,21.16267402144763 L 24.847778315698708,21.162673939056415 L 24.847778536784524,21.162673834494626 L 26.749633572560477,20.146164056146407 L 26.74963378236257,20.146163930402043 L 26.74963397858733,20.146163784878425 L 28.416503716487917,18.77817550974031 L 28.416503897722254,18.778175345476285 L 28.416504061871326,18.77817516436261 L 29.78442367244463,17.11127490894508 L 29.784423818103942,17.111274712542347 L 29.784423943817597,17.11127450281217 L 30.80102527489547,15.209518649112391 L 30.80102537948323,15.209518428001589 L 30.801025461789163,15.209518197999099 L 31.42700188186265,13.14599632866526 L 31.42700194129678,13.14599609139714 L 31.42700197713971,13.145995849773987 L 31.638305640007626,11.000000244300788 L 31.63830565200295,10.999999999999915 L 31.638305640007623,10.999999755699159 L 31.42700197718026,8.854004150554745 L 31.427001941296705,8.854003908602486 L 31.427001881951007,8.85400367165405 L 30.801025461887345,6.790481802298068 L 30.80102537948307,6.7904815719980265 L 30.801025275036174,6.790481351167141 L 29.7844239438176,4.888725497187835 L 29.784423818103974,4.888725287457703 L 29.78442367244459,4.888725091054873 L 28.41650406198005,3.22182483576343 L 28.416503897722105,3.2218246545235623 L 28.416503716613928,3.2218244903683946 L 26.749633978824626,1.8538362153067551 L 26.749633782362235,1.8538360695977343 L 26.74963357282235,1.8538359440019496 L 24.847778536784507,0.8373261655053624 L 24.847778315698722,0.8373260609435882 L 24.84777808542981,0.8373259785523753 L 22.784301992727762,0.21136481735594262 L 22.784301755459655,0.2113647579219734 L 22.78430151355177,0.2113647220369535 L 20.638305908366608,2.4062148164508894e-08 L 20.638305664062486,1.2059964707230575e-08 L 20.638305419782128,2.4060397633301176e-08 L 18.492309814616608,0.211364722031602 L 18.492309572665306,0.21136475792198145 L 18.492309335439344,0.2113648173442912 L 16.42883324269519,0.8373259785523753 L 16.428833012426278,0.8373260609435886 L 16.428832791340493,0.8373261655053624 L 14.526977755564523,1.8538359438535936 L 14.526977545762442,1.8538360695979506 L 14.526977349537662,1.8538362151215837 L 12.860107611637096,3.221824490259676 L 12.86010743040276,3.2218246545236995 L 12.860107266253664,3.221824835637402 L 11.49218765568037,4.888725091054922 L 11.492187510021054,4.888725287457661 L 11.492187384307398,4.88872549718784 L 10.475586053229518,6.790481350887633 L 10.47558594864178,6.790481571998382 L 10.475585866335837,6.790481802000901 L 9.849609446262335,8.854003671334786 L 9.849609386828224,8.854003908602841 L 9.849609350985288,8.85400415022602 L 9.63830568811738,10.999999755699138 L 9.638305676122053,11.00000000000015 z M 18.516968534936783,13.121323256803652 L 18.516967807667083,13.12132259760891 L 18.516967148526767,13.121321870289881 L 18.143921523071924,12.666710661111676 L 18.143920938651185,12.666709873034486 L 18.14392043427071,12.666709031480213 L 17.866699682758615,12.148049269005105 L 17.86669926340083,12.148048382381694 L 17.86669893291517,12.148047458941788 L 17.695923137772795,11.585274685850196 L 17.69592289908847,11.585273733220983 L 17.695922754997707,11.585272761773362 L 17.63830576051016,11.000000979712585 L 17.638305712402605,10.999999999999996 L 17.63830576051016,10.999999020287408 L 17.695922754997707,10.414727238226638 L 17.69592289908847,10.414726266779017 L 17.695923137772795,10.414725314149804 L 17.86669893291517,9.851952541058212 L 17.86669926340083,9.851951617618306 L 17.866699682758615,9.851950730994895 L 18.14392043427071,9.333290968519787 L 18.143920938651185,9.333290126965514 L 18.143921523071924,9.333289338888324 L 18.516967148526767,8.878678129710119 L 18.516967807667083,8.87867740239109 L 18.516968534936783,8.878676743196348 L 18.971556855729794,8.505592971125 L 18.97155764407763,8.505592386435211 L 18.971558485946698,8.505591881845339 L 19.49023350650185,8.228363501315913 L 19.490234393511116,8.228363081799127 L 19.490235317364395,8.228362751231586 L 20.052977573039968,8.057647991022847 L 20.05297852506654,8.057647752542634 L 20.05297949588526,8.057647608534245 L 20.63830468392456,8.000000096531833 L 20.6383056640625,8.000000048382397 L 20.63830664420044,8.000000096531833 L 21.22363183223974,8.057647608534245 L 21.22363280305846,8.057647752542634 L 21.223633755085032,8.057647991022847 L 21.786376010760605,8.228362751231586 L 21.786376934613884,8.228363081799127 L 21.78637782162315,8.228363501315913 L 22.305052842178302,8.50559188184534 L 22.30505368404737,8.505592386435213 L 22.305054472395206,8.505592971125001 L 22.759642793188217,8.878676743196348 L 22.759643520457917,8.87867740239109 L 22.759644179598233,8.878678129710119 L 23.132689805053076,9.333289338888324 L 23.132690389473815,9.333290126965514 L 23.13269089385429,9.333290968519787 L 23.409911645366385,9.851950730994895 L 23.40991206472417,9.851951617618306 L 23.40991239520983,9.851952541058212 L 23.580688190352205,10.414725314149804 L 23.58068842903653,10.414726266779017 L 23.580688573127293,10.414727238226638 L 23.63830556761484,10.999999020287415 L 23.638305615722395,11.000000000000004 L 23.63830556761484,11.000000979712592 L 23.580688573127293,11.585272761773362 L 23.58068842903653,11.585273733220983 L 23.580688190352205,11.585274685850196 L 23.40991239520983,12.148047458941788 L 23.40991206472417,12.148048382381694 L 23.409911645366385,12.148049269005105 L 23.13269089385429,12.666709031480213 L 23.132690389473815,12.666709873034486 L 23.132689805053076,12.666710661111676 L 22.759644179598233,13.121321870289881 L 22.759643520457917,13.12132259760891 L 22.759642793188217,13.121323256803652 L 22.305054472395206,13.494407028875 L 22.30505368404737,13.494407613564789 L 22.305052842178302,13.494408118154661 L 21.78637782162315,13.771636498684087 L 21.786376934613884,13.771636918200873 L 21.786376010760605,13.771637248768414 L 21.223633755085032,13.942352008977153 L 21.22363280305846,13.942352247457366 L 21.22363183223974,13.942352391465755 L 20.63830664420044,13.999999903468167 L 20.6383056640625,13.999999951617603 L 20.63830468392456,13.999999903468167 L 20.05297949588526,13.942352391465755 L 20.05297852506654,13.942352247457366 L 20.052977573039968,13.942352008977153 L 19.490235317364395,13.771637248768414 L 19.490234393511116,13.771636918200873 L 19.49023350650185,13.771636498684087 L 18.971558485946698,13.49440811815466 L 18.97155764407763,13.494407613564787 L 18.971556855729794,13.494407028874999 L 18.516968534936783,13.121323256803652 z" />
	<path fill-rule="evenodd" fill="#000000" stroke="#555555" stroke-width="0" opacity="1" d="M 1.2059761653594187e-08,25.723236083984215 L 1.2394536372169082e-08,25.723236090796934 L 2.4058429319058793e-08,25.72323632828885 L 0.12487790562907082,26.9913251341135 L 0.12487794151576842,26.99132537606535 L 0.12487800094041293,26.99132561331595 L 0.49475090530400734,28.21067786566956 L 0.4947509877044981,28.210678095970895 L 0.4947510921090899,28.210678316721673 L 1.0954588686470559,29.33444192217584 L 1.0954589944024355,29.334442131971652 L 1.09545914010901,29.33444232843595 L 1.903808438015989,30.319427300470295 L 1.903808602277711,30.319427481706718 L 1.9038087834985176,30.31942764595708 L 2.8887937555491283,31.127784573269007 L 2.888793952012694,31.127784718976436 L 2.8887941618022666,31.127784844719578 L 4.012573025687781,31.728454474122756 L 4.012573246802617,31.728454578701783 L 4.0125734771032,31.728454661104532 L 5.231933358834297,32.098342824247034 L 5.2319335961027535,32.09834288367957 L 5.2319338380547755,32.098342919569646 L 6.49999975569664,32.223236059922684 L 6.5,32.2232360719245 L 6.50000024430336,32.223236059922684 L 7.768066161945919,32.098342919569575 L 7.7680664038972544,32.09834288367958 L 7.768066641165553,32.09834282424708 L 8.987426522904785,31.72845466110211 L 8.987426753197727,31.72845457870253 L 8.987426974305436,31.728454474127854 L 10.111205838187121,31.127792474118312 L 10.111206047987423,31.127792348370885 L 10.111206244354284,31.12779220273747 L 11.096191216488156,30.31942764596949 L 11.096191397722336,30.31942748170681 L 11.096191561983385,30.31942730047106 L 11.904540859918308,29.334442328402666 L 11.904541005601109,29.334442131973944 L 11.904541131332648,29.33444192221381 L 12.505248907709568,28.21067831708195 L 12.505249012295685,28.210678095970454 L 12.505249094569455,28.21067786605255 L 12.875121999054013,26.99132561333433 L 12.875122058484239,26.99132537606532 L 12.875122094369042,26.991325134132655 L 12.999999975928835,25.72323632841813 L 12.99999998794023,25.723236083984368 L 12.999999987604653,25.72323607715533 L 12.999999975941572,25.723235839679912 L 12.875122094370926,24.455147033855226 L 12.875122058484234,24.455146791903402 L 12.875121999059596,24.45514655465283 L 12.505249094696,23.23579430229921 L 12.505249012295499,23.235794071997855 L 12.505248907890893,23.235793851247045 L 11.904541131352937,22.112030245792898 L 11.904541005597572,22.11203003599711 L 11.904540859890986,22.11202983953279 L 11.096191561984003,21.127044867498444 L 11.096191397722299,21.127044686262042 L 11.09619121650149,21.127044522011676 L 10.111206244450853,20.31868759469973 L 10.111206047987338,20.318687448992332 L 10.111205838187828,20.318687323243875 L 8.987426974310685,19.718017693845173 L 8.987426753199005,19.718017589267546 L 8.987426522896817,19.718017506864225 L 7.768066641166227,19.348129343721876 L 7.7680664038970875,19.34812928428914 L 7.768066161946016,19.348129248399182 L 6.500000244304169,19.223236108046148 L 6.499999999999978,19.22323609604434 L 6.499999755695831,19.223236108046148 L 5.231933838053984,19.348129248399182 L 5.231933596102913,19.34812928428914 L 5.231933358833773,19.348129343721876 L 4.012573477109917,19.718017506862182 L 4.012573246800969,19.718017589267557 L 4.012573025689315,19.718017693845173 L 2.888794161812231,20.318687323243843 L 2.8887939520126404,20.31868744899235 L 2.888793755557862,20.318687594692577 L 1.9038087835133561,21.127044521999487 L 1.9038086022776806,21.12704468626206 L 1.9038084380281621,21.127044867483622 L 1.0954591400816984,22.112029839566077 L 1.0954589943988808,22.112030035994824 L 1.0954588686673645,22.11203024575492 L 0.4947510922904443,23.23579385088678 L 0.49475098770430853,23.235794071998313 L 0.49475090543054545,23.235794301916197 L 0.12487800094599646,24.45514655463439 L 0.12487794151576055,24.45514679190344 L 0.12487790563095574,24.455147033836113 L 2.4070961939673766e-08,25.723235839552675 L 1.2401060211929092e-08,25.723236077034993 L 1.2059761653594187e-08,25.723236083984215 z M 4.37866287087428,27.844559340788027 L 4.37866214360458,27.844558681593284 L 4.378661484464263,27.844557954274254 L 4.005615859009426,27.38994674509605 L 4.005615274588686,27.389945957018863 L 4.005614770208213,27.389945115464588 L 3.7283940186961138,26.87128535298948 L 3.7283935993383275,26.87128446636607 L 3.7283932688526695,26.871283542926165 L 3.5576174737102937,26.308510769834573 L 3.5576172350259685,26.30850981720536 L 3.5576170909352056,26.30850884575774 L 3.500000096447662,25.723237063696963 L 3.500000048340107,25.723236083984375 L 3.500000096447662,25.723235104271787 L 3.5576170909352056,25.13796332221101 L 3.5576172350259685,25.13796235076339 L 3.5576174737102937,25.137961398134177 L 3.7283932688526695,24.575188625042585 L 3.7283935993383275,24.57518770160268 L 3.7283940186961138,24.57518681497927 L 4.005614770208213,24.056527052504162 L 4.005615274588686,24.056526210949887 L 4.005615859009426,24.0565254228727 L 4.378661484464263,23.601914213694496 L 4.37866214360458,23.601913486375466 L 4.37866287087428,23.601912827180723 L 4.833251191667298,23.228829055109372 L 4.833251980015138,23.228828470419586 L 4.833252821884203,23.228827965829712 L 5.351927842439356,22.951599585300283 L 5.351928729448625,22.9515991657835 L 5.351929653301902,22.951598835215957 L 5.914671908977476,22.78088407500722 L 5.914672861004046,22.780883836527007 L 5.914673831822767,22.780883692518618 L 6.4999990198620585,22.72323618051621 L 6.5,22.72323613236677 L 6.5000009801379415,22.72323618051621 L 7.085326168177233,22.780883692518618 L 7.085327138995954,22.780883836527007 L 7.085328091022524,22.78088407500722 L 7.6480703466981055,22.95159883521596 L 7.648071270551382,22.951599165783502 L 7.648072157560651,22.951599585300286 L 8.166747178115797,23.228827965829712 L 8.166748019984862,23.228828470419586 L 8.166748808332702,23.228829055109372 L 8.621337129125717,23.601912827180723 L 8.621337856395417,23.601913486375466 L 8.621338515535735,23.601914213694496 L 8.994384140990574,24.0565254228727 L 8.994384725411313,24.05652621094989 L 8.994385229791787,24.056527052504162 L 9.27160598130389,24.57518681497928 L 9.271606400661677,24.57518770160269 L 9.271606731147333,24.575188625042596 L 9.442382526289704,25.13796139813417 L 9.44238276497403,25.137962350763384 L 9.442382909064793,25.137963322211004 L 9.499999903552338,25.723235104271787 L 9.499999951659891,25.723236083984375 L 9.499999903552338,25.723237063696963 L 9.442382909064793,26.308508845757746 L 9.44238276497403,26.308509817205366 L 9.442382526289704,26.30851076983458 L 9.271606731147333,26.871283542926154 L 9.271606400661677,26.87128446636606 L 9.27160598130389,26.87128535298947 L 8.994385229791787,27.389945115464588 L 8.994384725411313,27.38994595701886 L 8.994384140990574,27.38994674509605 L 8.621338515535735,27.844557954274254 L 8.621337856395417,27.844558681593284 L 8.621337129125717,27.844559340788027 L 8.166748808332702,28.217643112859378 L 8.166748019984862,28.217643697549164 L 8.166747178115797,28.217644202139038 L 7.818278340349591,28.403898499590067 L 7.648072157560642,28.494872582668467 L 7.648071270551373,28.49487300218525 L 7.648070346698097,28.494873332752793 L 7.08532809102252,28.66558809296153 L 7.085327138995949,28.665588331441743 L 7.085326168177229,28.665588475450132 L 7.032941702690584,28.670747717123973 L 6.5000009801379415,28.72323598745254 L 6.5,28.72323603560198 L 6.4999990198620585,28.72323598745254 L 5.967058297309416,28.670747717123973 L 5.914673831822771,28.665588475450132 L 5.914672861004051,28.665588331441743 L 5.91467190897748,28.66558809296153 L 5.351929653301902,28.494873332752793 L 5.351928729448625,28.49487300218525 L 5.351927842439356,28.494872582668467 L 4.833252821884203,28.217644202139038 L 4.833251980015138,28.217643697549164 L 4.833251191667298,28.217643112859378 L 4.37866287087428,27.844559340788027 z" />
</svg>